<?xml version="1.0" encoding="UTF-8"?>
<svg version="1.1" xmlns="http://www.w3.org/2000/svg" width="580" height="586">
<path d="M0 0 C0.79825232 -0.00380567 1.59650463 -0.00761134 2.41894642 -0.01153234 C5.09845485 -0.02185303 7.77775162 -0.01794105 10.45727444 -0.01409245 C12.39597084 -0.0185446 14.33466542 -0.02385857 16.27335733 -0.02996117 C21.60485851 -0.04415454 26.93630144 -0.04580421 32.26781881 -0.04536426 C38.01649425 -0.04701131 43.7651456 -0.0600758 49.51380825 -0.07155704 C62.08623858 -0.09441575 74.65865203 -0.10232872 87.23110032 -0.10738349 C95.08174691 -0.11063975 102.9323886 -0.11716184 110.78303242 -0.12438488 C132.51995288 -0.1439526 154.25686763 -0.16043687 175.9937973 -0.16326141 C176.68900055 -0.16335547 177.38420379 -0.16344954 178.10047381 -0.16354645 C180.91777583 -0.16392492 183.73507785 -0.16428892 186.55237988 -0.16464943 C188.67281328 -0.16492114 190.79324668 -0.16519782 192.91368008 -0.16547489 C193.6143538 -0.16556291 194.31502752 -0.16565094 195.03693378 -0.16574163 C217.04406583 -0.16864597 239.05110998 -0.19073195 261.05821133 -0.22699833 C285.7883478 -0.26775115 310.51842209 -0.29140061 335.24859422 -0.29172093 C348.34039879 -0.29230552 361.43209025 -0.30079875 374.5238657 -0.32971859 C385.67254786 -0.3542328 396.82107565 -0.36151503 407.96977747 -0.34647106 C413.65646592 -0.33930224 419.34284955 -0.34015888 425.02950382 -0.36288166 C430.24030019 -0.38350318 435.45055802 -0.38084124 440.66134875 -0.36000682 C442.54160765 -0.35651802 444.42190566 -0.36139591 446.3021133 -0.37571125 C463.38211411 -0.49732211 476.25572764 3.01881686 489.00474453 15.23662472 C497.1123427 24.00820722 501.26400859 33.53364243 501.20230675 45.55298042 C501.20611242 46.3645048 501.20991809 47.17602917 501.21383908 48.01214519 C501.22414341 50.73076946 501.22025083 53.44918449 501.21639919 56.16782284 C501.22085222 58.13696856 501.22616648 60.10611248 501.23226792 62.07525378 C501.24645051 67.48623706 501.24811116 72.89716289 501.24767101 78.30816209 C501.24931897 84.14405434 501.26238508 89.97992292 501.27386379 95.81580257 C501.29671406 108.57611708 501.30463436 121.33641496 501.30969024 134.09674716 C501.31294706 142.0644806 501.31946944 150.03220921 501.32669163 157.99993992 C501.34633757 180.06116432 501.36274308 202.12238483 501.36556816 224.18361855 C501.36566222 224.88906102 501.36575628 225.59450349 501.36585319 226.321323 C501.36623167 229.18010354 501.36659567 232.03888407 501.36695617 234.89766461 C501.36722789 237.04930691 501.36750457 239.20094921 501.36778164 241.35259151 C501.36786966 242.06357701 501.36795768 242.7745625 501.36804837 243.50709301 C501.37095339 265.84332676 501.39304655 288.17947394 501.42930508 310.51567745 C501.4700504 335.61643969 501.49372687 360.71714294 501.49402767 385.81794006 C501.49450813 399.10586898 501.50311333 412.39370485 501.53202534 425.68160725 C501.55652958 436.99571516 501.56382842 448.309671 501.54877781 459.62379827 C501.54160526 465.39542929 501.54248177 471.16675995 501.56518841 476.93835735 C501.58578984 482.22554315 501.58316668 487.51219789 501.56231356 492.79937802 C501.55882097 494.70852572 501.56371884 496.61771183 501.578018 498.52680918 C501.67388027 512.21121657 500.12405802 523.23870223 491.02427578 534.16240597 C481.97094315 543.28368106 470.06789903 550.42477763 456.98236743 550.5297876 C456.24853999 550.52567696 455.51471255 550.52156633 454.75864792 550.51733112 C453.95894216 550.5208372 453.1592364 550.52434327 452.33529714 550.52795559 C449.65687205 550.53725591 446.97866504 550.5323498 444.30023098 550.52748775 C442.35995913 550.53122471 440.41968879 550.53582641 438.47942084 550.5412184 C433.14824513 550.55345834 427.81713214 550.55318675 422.48594558 550.55082965 C416.73594594 550.55042173 410.98596647 550.56145827 405.23597622 550.57094479 C393.97053418 550.58756146 382.70511308 550.59305464 371.43965981 550.59416954 C362.28231714 550.59511974 353.12498137 550.59922865 343.96764088 550.60557079 C322.23067654 550.62031889 300.49371812 550.63262032 278.7567482 550.63157368 C277.71415453 550.63152694 277.71415453 550.63152694 276.65049835 550.63147926 C273.12771498 550.63131305 269.60493161 550.63111497 266.08214823 550.63090985 C265.3825244 550.63086995 264.68290056 550.63083006 263.962076 550.63078897 C262.54726573 550.63070809 261.13245545 550.63062449 259.71764517 550.63053818 C237.71037257 550.62931294 215.70316161 550.64432124 193.69590664 550.67168331 C168.96430923 550.70242002 144.23275387 550.7195895 119.501136 550.71775687 C106.4088382 550.71709286 93.31660991 550.72259 80.22432804 550.74411297 C69.0767535 550.76232143 57.92927999 550.76667482 46.78169701 550.75309412 C41.09516775 550.74656273 35.40883235 550.7464537 29.72232151 550.76380062 C24.51291368 550.77952851 19.30385347 550.77667031 14.09445413 550.75923236 C12.21357247 550.75616186 10.33266488 550.75979667 8.45181379 550.77095251 C-8.05553852 550.8623488 -20.23848755 548.18666942 -32.80775547 536.76006222 C-33.55025547 535.93506222 -34.29275547 535.11006222 -35.05775547 534.26006222 C-35.53728672 533.78439816 -36.01681797 533.30873409 -36.51088047 532.81865597 C-46.7180104 522.12179 -46.77957764 509.6109753 -46.68594456 495.74429989 C-46.69099523 493.77012172 -46.69822808 491.79594815 -46.7074427 489.82178503 C-46.72631739 484.4200263 -46.71415803 479.01872222 -46.69671977 473.61697519 C-46.68332343 467.78254139 -46.69879097 461.94817313 -46.71054173 456.11374569 C-46.72890534 444.69352482 -46.72041459 433.27347524 -46.7024535 421.85325973 C-46.68841945 412.57111413 -46.68453644 403.28901498 -46.68789577 394.00685978 C-46.68813258 393.34660727 -46.68836938 392.68635475 -46.68861335 392.00609459 C-46.68958833 389.32571318 -46.69060915 386.64533179 -46.69169846 383.96495042 C-46.70177398 358.83819335 -46.68353763 333.71152795 -46.6519781 308.58479243 C-46.62411567 286.2746123 -46.61915616 263.96454116 -46.63417149 241.65434933 C-46.63799411 235.94028098 -46.64178896 230.22621262 -46.64534187 224.51214409 C-46.64577969 223.80861345 -46.6462175 223.1050828 -46.64666858 222.38023305 C-46.6579146 203.72173325 -46.65055498 185.06324141 -46.63746113 166.40474421 C-46.6360726 164.39649035 -46.63469189 162.38823648 -46.63332271 160.37998261 C-46.63195995 158.38368649 -46.63057657 156.38739038 -46.62919315 154.39109428 C-46.62358948 145.12070676 -46.62689333 135.85034684 -46.63350201 126.57996082 C-46.64123668 115.28167992 -46.63447751 103.98351612 -46.60932697 92.6852588 C-46.5968356 86.92187085 -46.59068123 81.15866519 -46.60186863 75.39527035 C-46.61192081 70.1170148 -46.60343013 64.83912253 -46.58028745 59.56091113 C-46.57513495 57.65395959 -46.5766777 55.74697541 -46.5856821 53.84003817 C-46.65463011 37.91022873 -44.21776643 26.14230482 -33.02650547 14.06865597 C-24.0198826 5.46994174 -12.49736076 -0.06493048 0 0 Z " fill="#8B0405" transform="translate(63.05775547027588,18.739937782287598)"/>
<path d="M0 0 C19.07227307 -0.04683381 38.14453438 -0.08204442 57.21685314 -0.10362434 C66.07354346 -0.11391302 74.93019793 -0.12792703 83.78686523 -0.15087891 C91.51123448 -0.17088682 99.23557776 -0.18373392 106.9599722 -0.18817699 C111.04551843 -0.1907719 115.13099038 -0.19682021 119.21651268 -0.21146011 C123.07176461 -0.22516132 126.92691254 -0.22919765 130.78218651 -0.22621536 C132.1877194 -0.22675997 133.59325622 -0.23066207 134.99876785 -0.23841095 C143.86629994 -0.28484982 152.27855325 0.39493741 161 2 C161.84949313 2.14878538 162.69898626 2.29757076 163.57422161 2.45086479 C174.59704574 4.4054987 184.13806532 7.74104272 194 13 C195.07121094 13.55816406 196.14242187 14.11632812 197.24609375 14.69140625 C212.37966862 23.0004136 224.51646669 36.13996307 229.57470703 52.90478516 C233.49743824 68.8082718 233.21269687 88.13626557 226 103 C225.61585938 103.83789062 225.23171875 104.67578125 224.8359375 105.5390625 C215.4428289 124.1335836 197.4837118 135.49705739 178.1875 141.875 C175.79769598 142.60341626 173.4022235 143.31365043 171 144 C170.08992187 144.28359375 169.17984375 144.5671875 168.2421875 144.859375 C151.97413982 149.50738862 134.9763646 150.21436036 118.171875 150.08203125 C116.6905951 150.07542655 115.20931229 150.06944177 113.72802734 150.06408691 C110.15195649 150.04984184 106.57599783 150.02731037 103 150 C103.06131613 162.23117242 103.13849818 174.46213331 103.23571491 186.69307613 C103.28036695 192.37292488 103.31963458 198.05270276 103.34643555 203.73266602 C103.37251987 209.2181965 103.41295886 214.70345349 103.46318626 220.18881416 C103.47982026 222.277447 103.49135606 224.36612711 103.49761391 226.45481682 C103.50729266 229.38935628 103.53539726 232.32320147 103.56762695 235.25756836 C103.56619186 236.11353104 103.56475677 236.96949371 103.5632782 237.85139465 C103.67478752 245.07048116 105.37976782 251.70749801 109 258 C118.08226695 264.66032909 130.07504972 265.42914674 141 266 C141 268.31 141 270.62 141 273 C94.47 273 47.94 273 0 273 C0 270.69 0 268.38 0 266 C0.92111572 265.90295776 0.92111572 265.90295776 1.86083984 265.80395508 C17.98721578 264.83514341 17.98721578 264.83514341 32 258 C40.32553238 247.09308746 38.29418834 228.41757483 38.2746582 215.39697266 C38.27901473 213.46029974 38.28420098 211.52362853 38.29014587 209.58695984 C38.30344536 204.36578702 38.30412475 199.14468698 38.30158257 193.92350054 C38.30050678 189.54763732 38.30541165 185.17178847 38.310188 180.79592836 C38.32125168 170.46420155 38.32173818 160.13251111 38.31567383 149.80078125 C38.309635 139.17959563 38.32195003 128.55854251 38.3432439 117.93737948 C38.36091553 108.78277423 38.36685255 99.62821096 38.36360615 90.4735893 C38.36180216 85.02160811 38.36434066 79.56972147 38.37832069 74.11775589 C38.3909855 68.98760221 38.38887391 63.85765371 38.37590981 58.72750282 C38.37356328 56.85719416 38.37620865 54.98687066 38.38453293 53.11657906 C38.84537634 32.44934608 38.84537634 32.44934608 31 14 C25.04389173 9.73191491 17.52318806 9.04719852 10.4375 8.25 C9.42880859 8.12496094 8.42011719 7.99992187 7.38085938 7.87109375 C4.9218085 7.56808274 2.4619815 7.27800181 0 7 C0 4.69 0 2.38 0 0 Z " fill="#FEFDFD" transform="translate(41,57)"/>
<path d="M0 0 C55.77 0 111.54 0 169 0 C169 16.83 169 33.66 169 51 C167.35 51 165.7 51 164 51 C163.70867187 49.88882813 163.41734375 48.77765625 163.1171875 47.6328125 C159.66000232 34.89196711 155.62747714 23.52570643 144 16 C127.04546307 8.58641922 106.75133074 10.57262357 89 10 C89 33.43 89 56.86 89 81 C104.99635698 79.27488535 104.99635698 79.27488535 117 70 C122.54192881 60.8430284 124.07730464 50.36536887 126 40 C127.65 40 129.3 40 131 40 C131 70.69 131 101.38 131 133 C129.35 133 127.7 133 126 133 C125.84144531 131.99582031 125.68289063 130.99164063 125.51953125 129.95703125 C122.69860594 112.36626029 122.69860594 112.36626029 113 98 C107.76315495 94.5417061 102.7894883 93.46144751 96.70703125 92.38671875 C95.96505493 92.2518103 95.22307861 92.11690186 94.45861816 91.97790527 C92.63982221 91.64781394 90.82000815 91.32334088 89 91 C89.08482305 98.52009727 89.17986408 106.04000863 89.28752708 113.55981255 C89.33722119 117.05253089 89.3835506 120.54522286 89.421875 124.03808594 C89.46620897 128.06463621 89.52574469 132.09084283 89.5859375 136.1171875 C89.59748871 137.35612762 89.60903992 138.59506775 89.62094116 139.87155151 C89.30118415 151.40002311 89.30118415 151.40002311 93.41098022 161.69674683 C98.33238433 165.73309402 104.61158493 165.31504352 110.625 165.25 C111.96014648 165.24093628 111.96014648 165.24093628 113.32226562 165.23168945 C120.04778667 165.13080664 126.43233441 164.49821927 133 163 C133.99128906 162.80535156 134.98257813 162.61070312 136.00390625 162.41015625 C149.10345352 159.58279547 159.245926 153.28308234 166.9375 142.2109375 C171.2494803 135.16679727 174.27697984 127.78005759 177 120 C178.65 120 180.3 120 182 120 C181.31717113 129.4258411 179.92065394 138.72720712 178.5 148.0625 C178.04915414 151.03211845 177.60091991 154.00210658 177.15625 156.97265625 C177.05046631 157.67669586 176.94468262 158.38073547 176.83569336 159.10610962 C176.13812107 163.83157452 175.59425854 168.5481089 175.22851562 173.31030273 C175 175 175 175 174 176 C171.75975357 176.09704641 169.51637946 176.12186656 167.27403259 176.12025452 C166.56264006 176.12110894 165.85124752 176.12196337 165.11829764 176.12284368 C162.71677952 176.12450057 160.31533012 176.11897374 157.91381836 176.11352539 C156.19940696 176.11324354 154.48499544 176.11340122 152.77058411 176.1139679 C148.10136027 176.11425594 143.43216188 176.10835804 138.76294398 176.10139394 C133.88888473 176.09516161 129.01482495 176.0945567 124.14076233 176.09336853 C114.9043057 176.09025486 105.66786085 176.08204098 96.43140942 176.07201904 C85.91889135 176.06085902 75.40637272 176.05534774 64.89385021 176.05032361 C43.26256022 176.0398584 21.63128085 176.02225826 0 176 C0 174.35 0 172.7 0 171 C0.92941406 170.89042969 1.85882813 170.78085937 2.81640625 170.66796875 C13.64894936 169.85901248 13.64894936 169.85901248 22.375 164.25 C24.42723257 156.86196275 24.14803265 149.3465147 24.14526367 141.74023438 C24.14825955 140.40082201 24.15166306 139.06141051 24.15544128 137.72200012 C24.1642395 134.10015466 24.16661756 130.47833285 24.16725707 126.85647774 C24.16796967 124.59081402 24.17010792 122.32515625 24.17275429 120.05949402 C24.18199219 112.14756897 24.18609091 104.23566073 24.18530273 96.32373047 C24.18470159 88.96022649 24.19526467 81.59679568 24.2110464 74.23331022 C24.22413571 67.89935065 24.22948608 61.56541496 24.22884732 55.23144197 C24.22859285 51.45360009 24.2314164 47.67582335 24.24202538 43.897995 C24.25173042 40.34552175 24.25176913 36.79317568 24.24450874 33.24069786 C24.24297057 31.32291928 24.25129183 29.40514064 24.25994873 27.48738098 C24.23868941 21.64734646 24.21860872 16.45020614 22 11 C17.55410009 6.96798266 13.36946956 6.2486158 7.625 5.75 C6.88894531 5.67265625 6.15289062 5.5953125 5.39453125 5.515625 C3.59782982 5.32895472 1.79905887 5.16238536 0 5 C0 3.35 0 1.7 0 0 Z " fill="#FDFCFC" transform="translate(358,113)"/>
<path d="M0 0 C15.1390349 -0.384077 30.42569314 2.28686662 44.1328125 8.90625 C48.21943993 10.44837356 52.12162928 11.01093157 56.4453125 10.15625 C58.87851189 8.26121706 60.0082517 6.30692726 61.1328125 3.46875 C61.5659375 2.375625 61.9990625 1.2825 62.4453125 0.15625 C63.7653125 0.15625 65.0853125 0.15625 66.4453125 0.15625 C66.4453125 18.30625 66.4453125 36.45625 66.4453125 55.15625 C65.7853125 55.15625 65.1253125 55.15625 64.4453125 55.15625 C64.09339844 54.17785156 63.74148438 53.19945312 63.37890625 52.19140625 C60.41696513 44.21961145 57.40797311 37.39801387 51.4453125 31.15625 C50.53652344 30.20492187 50.53652344 30.20492187 49.609375 29.234375 C41.17273918 21.17652691 30.93307807 17.7394231 19.41796875 17.87890625 C9.34995096 18.81823511 1.24076762 23.99149162 -5.6171875 31.15625 C-20.98156593 50.28845965 -22.33255775 77.13714192 -20.25439453 100.53759766 C-18.42046931 116.44952715 -15.68323782 133.55191992 -3.5546875 145.15625 C6.7762174 152.76071577 16.92737175 154.29876047 29.4453125 153.15625 C42.40347325 150.66314764 52.88294369 142.93328043 61.4453125 133.15625 C61.7753125 132.49625 62.1053125 131.83625 62.4453125 131.15625 C63.1053125 131.15625 63.7653125 131.15625 64.4453125 131.15625 C65.11754854 135.18966622 65.38293817 138.65604892 63.15625 142.21875 C49.35046247 156.78826195 28.69918869 165.76568123 8.89453125 166.4375 C-19.12504964 166.98318835 -42.1621735 162.29123106 -63.2421875 142.5625 C-80.29354415 124.81987214 -85.14071192 103.07721025 -84.82421875 79.25390625 C-84.13123647 57.10919655 -72.6335774 37.27438594 -56.7421875 22.34375 C-50.8798902 17.04601246 -44.45788831 13.00049278 -37.5546875 9.15625 C-36.84828125 8.74761719 -36.141875 8.33898437 -35.4140625 7.91796875 C-24.17843982 1.80446817 -12.5345916 0.55097106 0 0 Z " fill="#FDFCFC" transform="translate(291.5546875,193.84375)"/>
<path d="M0 0 C19.35440067 0 33.40949268 0.25611679 47.75 13.125 C59.43810363 25.64009209 61.48201635 43.96604348 61.203125 60.296875 C60.62462367 77.15807236 56.93278766 93.88809698 44.86328125 106.45703125 C41.53676827 109.21169085 37.84318416 111.07840792 34 113 C33.01 113.66 32.02 114.32 31 115 C20.50628327 118.24026947 11.18725879 118 0 118 C0 79.06 0 40.12 0 0 Z " fill="#8B0304" transform="translate(144,73)"/>
<path d="M0 0 C164.67 0 329.34 0 499 0 C499 1.65 499 3.3 499 5 C334.33 5 169.66 5 0 5 C0 3.35 0 1.7 0 0 Z " fill="#F7EFEF" transform="translate(41,388)"/>
<path d="M0 0 C164.67 0 329.34 0 499 0 C499 1.32 499 2.64 499 4 C334.33 4 169.66 4 0 4 C0 2.68 0 1.36 0 0 Z " fill="#FFFFFF" transform="translate(41,527)"/>
<path d="M0 0 C4.00534949 2.76628454 5.63590757 5.89209772 7.171875 10.5 C7.84280505 17.92422595 7.78304877 24.38487417 3.171875 30.5 C-0.64886594 34.5929033 -4.90616853 37.1725027 -10.51171875 37.80078125 C-16.93588109 37.82811811 -21.62397085 37.62694561 -26.44921875 32.91796875 C-31.61932786 27.22712922 -33.26068137 22.68237466 -33.078125 14.9921875 C-32.44354928 8.66626076 -29.29041165 3.86312473 -24.828125 -0.5 C-16.47333813 -5.36296128 -8.25038394 -4.50952663 0 0 Z " fill="#FBF6F6" transform="translate(502.828125,409.5)"/>
<path d="M0 0 C4.00534949 2.76628454 5.63590757 5.89209772 7.171875 10.5 C7.72863005 17.12752651 7.78310984 23.70935325 4.171875 29.5 C0.19502906 33.90889834 -4.09102841 37.14864904 -10.11328125 37.71484375 C-15.69858451 37.92545096 -19.92443146 37.42335576 -24.828125 34.5 C-30.1427052 29.5290878 -32.86428237 24.95360664 -33.140625 17.625 C-32.96372065 10.17290437 -30.14799811 4.70165371 -24.828125 -0.5 C-16.47333813 -5.36296128 -8.25038394 -4.50952663 0 0 Z " fill="#FBF6F6" transform="translate(283.828125,409.5)"/>
<path d="M0 0 C6.59862069 0.09158969 12.45751801 0.6326337 17.72021484 4.93847656 C19.11889905 8.38856426 19.32740989 11.62886251 18.65771484 15.25097656 C16.87154922 17.98976385 14.9564755 19.9522159 12.65771484 22.25097656 C13.25583984 22.70472656 13.85396484 23.15847656 14.47021484 23.62597656 C18.40283852 28.34512497 19.65771484 34.19151615 19.65771484 40.25097656 C16.68771484 40.25097656 13.71771484 40.25097656 10.65771484 40.25097656 C10.22458984 38.86910156 9.79146484 37.48722656 9.34521484 36.06347656 C7.62662192 30.83016413 7.62662192 30.83016413 4.65771484 26.25097656 C2.67771484 25.92097656 0.69771484 25.59097656 -1.34228516 25.25097656 C-1.34228516 30.20097656 -1.34228516 35.15097656 -1.34228516 40.25097656 C-4.64228516 40.25097656 -7.94228516 40.25097656 -11.34228516 40.25097656 C-11.36693291 34.71509123 -11.38512011 29.17923756 -11.3972168 23.64331055 C-11.4022576 21.75853927 -11.40909014 19.87377192 -11.41772461 17.98901367 C-11.42980133 15.2859602 -11.43551584 12.58295825 -11.43994141 9.87988281 C-11.44510269 9.03196671 -11.45026398 8.1840506 -11.45558167 7.31044006 C-11.4557771 5.29026588 -11.40434726 3.27019722 -11.34228516 1.25097656 C-9.07015945 -1.02114915 -3.17495602 0.00132373 0 0 Z " fill="#F7EFEF" transform="translate(354.34228515625,472.7490234375)"/>
<path d="M0 0 C3.63 0 7.26 0 11 0 C13.59618081 2.85937311 14.84717816 4.64048006 16.4375 8 C16.83130859 8.74378906 17.22511719 9.48757813 17.63085938 10.25390625 C18.79977455 12.48318063 19.9014407 14.73524329 21 17 C22.32 19.64 23.64 22.28 25 25 C25.33 17.08 25.66 9.16 26 1 C28.64 1 31.28 1 34 1 C34 13.87 34 26.74 34 40 C30.7 40 27.4 40 24 40 C22.03989199 36.58434853 20.08222426 33.16730459 18.125 29.75 C17.56941406 28.78191406 17.01382812 27.81382812 16.44140625 26.81640625 C15.90644531 25.88183594 15.37148437 24.94726562 14.8203125 23.984375 C14.32805176 23.12553711 13.83579102 22.26669922 13.32861328 21.38183594 C12.15982684 19.28652529 11.07297609 17.14595219 10 15 C9.67 23.25 9.34 31.5 9 40 C6.03 40 3.06 40 0 40 C0 26.8 0 13.6 0 0 Z " fill="#FAF4F4" transform="translate(240,473)"/>
<path d="M0 0 C2.97 0 5.94 0 9 0 C9 13.2 9 26.4 9 40 C5.7 40 2.4 40 -1 40 C-3.75538955 36.90721581 -5.16350142 34.63672064 -7 31 C-7.78452656 29.53732337 -8.57257038 28.07653022 -9.36328125 26.6171875 C-11.62590488 22.43521492 -13.80617408 18.22145291 -16 14 C-16.33 22.58 -16.66 31.16 -17 40 C-19.64 40 -22.28 40 -25 40 C-25 27.13 -25 14.26 -25 1 C-14 1 -14 1 -11.3515625 3.52734375 C-10.49691406 5.21537109 -10.49691406 5.21537109 -9.625 6.9375 C-9.03976563 8.03964844 -8.45453125 9.14179688 -7.8515625 10.27734375 C-7.24054688 11.50582031 -6.62953125 12.73429687 -6 14 C-4.35 16.97 -2.7 19.94 -1 23 C-0.67 15.41 -0.34 7.82 0 0 Z " fill="#FAF4F4" transform="translate(168,473)"/>
<path d="M0 0 C2.97 0 5.94 0 9 0 C9 13.2 9 26.4 9 40 C5.7 40 2.4 40 -1 40 C-3.35832607 37.23903289 -4.45837929 35.22540817 -6 32 C-7.14692368 29.92592245 -8.32285426 27.86969893 -9.49975586 25.8125 C-14.24522231 17.50955538 -14.24522231 17.50955538 -16 14 C-16.33 22.58 -16.66 31.16 -17 40 C-19.64 40 -22.28 40 -25 40 C-25 27.13 -25 14.26 -25 1 C-14 1 -14 1 -11.38671875 3.421875 C-10.82597656 4.52015625 -10.26523437 5.6184375 -9.6875 6.75 C-9.37683594 7.32967529 -9.06617188 7.90935059 -8.74609375 8.5065918 C-7.78745892 10.31901076 -6.89275249 12.15439181 -6 14 C-5.39800781 15.16660156 -4.79601562 16.33320313 -4.17578125 17.53515625 C-2.74341162 20.33645722 -1.3659246 23.16570646 0 26 C0 17.42 0 8.84 0 0 Z " fill="#FAF5F5" transform="translate(420,473)"/>
<path d="M0 0 C-0.33 2.31 -0.66 4.62 -1 7 C-2.08539063 6.94199219 -3.17078125 6.88398438 -4.2890625 6.82421875 C-5.73433176 6.77729442 -7.17964784 6.73179713 -8.625 6.6875 C-9.69427734 6.6246582 -9.69427734 6.6246582 -10.78515625 6.56054688 C-14.83351196 6.46769468 -17.26404313 6.79287454 -20.4609375 9.39453125 C-23.63646424 12.65311023 -23.94548403 13.18226038 -24.25 17.75 C-24.19091199 21.81230069 -23.28559482 24.57160777 -21 28 C-17.96499591 29.91684469 -15.29739948 30.34494215 -11.75 30.625 C-10.85796875 30.69976562 -9.9659375 30.77453125 -9.046875 30.8515625 C-8.37140625 30.90054688 -7.6959375 30.94953125 -7 31 C-7 28.36 -7 25.72 -7 23 C-9.31 23 -11.62 23 -14 23 C-14 20.36 -14 17.72 -14 15 C-8.72 15 -3.44 15 2 15 C2 22.26 2 29.52 2 37 C-6.93879495 39.55394141 -15.79812454 40.8967358 -24.5625 37 C-29.28531415 34.18342879 -32.37037294 31.33479903 -34 26 C-34.96779171 19.14293317 -35.55731943 12.21535956 -31.4375 6.3125 C-23.35766309 -2.4533608 -10.92766418 -4.60112176 0 0 Z " fill="#F8F0F0" transform="translate(421,408)"/>
<path d="M0 0 C-0.33 2.31 -0.66 4.62 -1 7 C-2.16917969 6.94199219 -3.33835937 6.88398438 -4.54296875 6.82421875 C-6.0911058 6.77730551 -7.63928617 6.73180702 -9.1875 6.6875 C-9.95642578 6.64560547 -10.72535156 6.60371094 -11.51757812 6.56054688 C-15.70346528 6.47072097 -17.50323279 6.64672902 -21.015625 9.14453125 C-24.30518446 13.8781296 -23.85160972 18.45302857 -23 24 C-21.19196596 27.07365786 -20.13960536 28.43019732 -17 30 C-15.29636178 30.22622081 -13.58671299 30.40888473 -11.875 30.5625 C-10.96492188 30.64628906 -10.05484375 30.73007812 -9.1171875 30.81640625 C-8.41851562 30.87699219 -7.71984375 30.93757813 -7 31 C-7 28.03 -7 25.06 -7 22 C-9.31 22 -11.62 22 -14 22 C-14 19.69 -14 17.38 -14 15 C-8.72 15 -3.44 15 2 15 C2 22.26 2 29.52 2 37 C-6.37811669 38.67562334 -18.22259982 40.44459802 -25.875 35.8125 C-29.28785985 33.07599279 -32.03720458 29.92559084 -34 26 C-34.52218624 18.81993914 -34.89056869 12.2249099 -31 6 C-22.77208974 -2.41925701 -10.9549928 -4.73729418 0 0 Z " fill="#F9F3F3" transform="translate(468,475)"/>
<path d="M0 0 C-0.33 2.31 -0.66 4.62 -1 7 C-2.16917969 6.94199219 -3.33835938 6.88398438 -4.54296875 6.82421875 C-6.0911058 6.77730551 -7.63928617 6.73180702 -9.1875 6.6875 C-9.95642578 6.64560547 -10.72535156 6.60371094 -11.51757812 6.56054688 C-15.70346528 6.47072097 -17.50323279 6.64672902 -21.015625 9.14453125 C-24.30518446 13.8781296 -23.85160972 18.45302857 -23 24 C-21.19196596 27.07365786 -20.13960536 28.43019732 -17 30 C-15.29636178 30.22622081 -13.58671299 30.40888473 -11.875 30.5625 C-10.96492188 30.64628906 -10.05484375 30.73007812 -9.1171875 30.81640625 C-8.41851562 30.87699219 -7.71984375 30.93757813 -7 31 C-7 28.03 -7 25.06 -7 22 C-9.31 22 -11.62 22 -14 22 C-14 19.69 -14 17.38 -14 15 C-8.72 15 -3.44 15 2 15 C2 22.26 2 29.52 2 37 C-18.247237 40.3745395 -18.247237 40.3745395 -25.8125 35.8125 C-29.26765036 33.08556519 -32.02451303 29.95097393 -34 26 C-34.52218624 18.81993914 -34.89056869 12.2249099 -31 6 C-22.77208974 -2.41925701 -10.9549928 -4.73729418 0 0 Z " fill="#F9F3F3" transform="translate(216,475)"/>
<path d="M0 0 C4.29 0 8.58 0 13 0 C14.44011514 4.12410333 15.87716088 8.24923452 17.3125 12.375 C17.91868164 14.10943359 17.91868164 14.10943359 18.53710938 15.87890625 C25 34.47942073 25 34.47942073 25 39 C21.7 39 18.4 39 15 39 C13.515 34.545 13.515 34.545 12 30 C8.04 29.67 4.08 29.34 0 29 C-0.66 32.3 -1.32 35.6 -2 39 C-5.3 39 -8.6 39 -12 39 C-9.04769855 25.61752831 -4.63880959 12.88057809 0 0 Z " fill="#FAF6F6" transform="translate(162,407)"/>
<path d="M0 0 C3.34125 -0.0825 6.6825 -0.165 10.125 -0.25 C11.16672363 -0.28641602 12.20844727 -0.32283203 13.28173828 -0.36035156 C19.03094319 -0.42891296 22.51620346 0.01758646 27 4 C29.83535784 8.25303676 29.76089759 12.00758008 29 17 C27.3481838 20.35141221 24.97714697 22.38579333 21.8125 24.375 C17.51188813 25.33069153 13.40007211 25.11733526 9 25 C9 29.62 9 34.24 9 39 C6.03 39 3.06 39 0 39 C0 26.13 0 13.26 0 0 Z " fill="#FDFAFA" transform="translate(41,407)"/>
<path d="M0 0 C8.58 0 17.16 0 26 0 C26 2.64 26 5.28 26 8 C20.72 8 15.44 8 10 8 C10 10.64 10 13.28 10 16 C14.62 16 19.24 16 24 16 C24 18.31 24 20.62 24 23 C19.05 23 14.1 23 9 23 C9 26.3 9 29.6 9 33 C14.94 33 20.88 33 27 33 C27 35.31 27 37.62 27 40 C18.09 40 9.18 40 0 40 C0 26.8 0 13.6 0 0 Z " fill="#F8F1F1" transform="translate(312,473)"/>
<path d="M0 0 C8.58 0 17.16 0 26 0 C26 2.64 26 5.28 26 8 C20.72 8 15.44 8 10 8 C10 10.64 10 13.28 10 16 C14.95 16 19.9 16 25 16 C25 18.31 25 20.62 25 23 C19.72 23 14.44 23 9 23 C9 26.3 9 29.6 9 33 C14.61 33 20.22 33 26 33 C26 35.31 26 37.62 26 40 C17.42 40 8.84 40 0 40 C0 26.8 0 13.6 0 0 Z " fill="#F9F1F2" transform="translate(111,473)"/>
<path d="M0 0 C8.58 0 17.16 0 26 0 C26 2.31 26 4.62 26 7 C20.39 7 14.78 7 9 7 C9 9.64 9 12.28 9 15 C14.28 15 19.56 15 25 15 C25 17.64 25 20.28 25 23 C20.05 23 15.1 23 10 23 C10 25.97 10 28.94 10 32 C15.28 32 20.56 32 26 32 C26 34.31 26 36.62 26 39 C17.42 39 8.84 39 0 39 C0 26.13 0 13.26 0 0 Z " fill="#FBF6F6" transform="translate(429,407)"/>
<path d="M0 0 C8.25 0 16.5 0 25 0 C25 2.31 25 4.62 25 7 C19.72 7 14.44 7 9 7 C9 9.64 9 12.28 9 15 C13.95 15 18.9 15 24 15 C24 17.64 24 20.28 24 23 C19.05 23 14.1 23 9 23 C9 25.97 9 28.94 9 32 C14.61 32 20.22 32 26 32 C26 34.31 26 36.62 26 39 C17.42 39 8.84 39 0 39 C0 26.13 0 13.26 0 0 Z " fill="#FCF9F9" transform="translate(357,407)"/>
<path d="M0 0 C8.25 0 16.5 0 25 0 C25 2.31 25 4.62 25 7 C19.72 7 14.44 7 9 7 C9 9.64 9 12.28 9 15 C13.95 15 18.9 15 24 15 C24 17.31 24 19.62 24 22 C19.05 22 14.1 22 9 22 C9 25.3 9 28.6 9 32 C14.61 32 20.22 32 26 32 C26 34.31 26 36.62 26 39 C17.42 39 8.84 39 0 39 C0 26.13 0 13.26 0 0 Z " fill="#FDFBFB" transform="translate(281,474)"/>
<path d="M0 0 C-0.33 2.31 -0.66 4.62 -1 7 C-2.03640625 6.97679687 -3.0728125 6.95359375 -4.140625 6.9296875 C-5.51040944 6.91092333 -6.8802017 6.89272382 -8.25 6.875 C-9.27287109 6.84986328 -9.27287109 6.84986328 -10.31640625 6.82421875 C-14.02714548 6.78819216 -16.92938429 6.78525273 -20 9 C-22.59109811 14.05881059 -21.97156712 18.60240488 -21 24 C-20.92394531 24.70898438 -20.84789062 25.41796875 -20.76953125 26.1484375 C-20.13145909 28.20642009 -20.13145909 28.20642009 -17.89453125 29.2421875 C-14.39252071 30.15904316 -11.30414414 30.19260083 -7.6875 30.125 C-6.43324219 30.10695313 -5.17898437 30.08890625 -3.88671875 30.0703125 C-2.93410156 30.04710937 -1.98148438 30.02390625 -1 30 C-1 32.64 -1 35.28 -1 38 C-7.59237801 40.19745934 -16.26313021 40.29500228 -22.625 37.3125 C-27.55512672 34.3207137 -30.18022902 30.40533667 -32 25 C-32.832024 17.35698888 -32.84119349 11.14962416 -28 5 C-21.02441458 -1.97558542 -8.88177701 -5.20870568 0 0 Z " fill="#F9F3F3" transform="translate(250,408)"/>
<path d="M0 0 C8.25 0 16.5 0 25 0 C25 2.31 25 4.62 25 7 C19.72 7 14.44 7 9 7 C9 9.97 9 12.94 9 16 C13.95 16 18.9 16 24 16 C24 18.31 24 20.62 24 23 C19.05 23 14.1 23 9 23 C9 28.28 9 33.56 9 39 C6.03 39 3.06 39 0 39 C0 26.13 0 13.26 0 0 Z " fill="#FDFBFB" transform="translate(515,407)"/>
<path d="M0 0 C3.3 0 6.6 0 10 0 C10 10.56 10 21.12 10 32 C15.28 32 20.56 32 26 32 C26 34.31 26 36.62 26 39 C17.42 39 8.84 39 0 39 C0 26.13 0 13.26 0 0 Z " fill="#FAF5F5" transform="translate(326,407)"/>
<path d="M0 0 C2.97 0 5.94 0 9 0 C9 10.56 9 21.12 9 32 C14.61 32 20.22 32 26 32 C26 34.31 26 36.62 26 39 C17.42 39 8.84 39 0 39 C0 26.13 0 13.26 0 0 Z " fill="#FEFDFD" transform="translate(296,407)"/>
<path d="M0 0 C2.97 0 5.94 0 9 0 C9 10.56 9 21.12 9 32 C14.61 32 20.22 32 26 32 C26 34.31 26 36.62 26 39 C17.42 39 8.84 39 0 39 C0 26.13 0 13.26 0 0 Z " fill="#FEFDFD" transform="translate(122,407)"/>
<path d="M0 0 C2.97 0 5.94 0 9 0 C9 10.56 9 21.12 9 32 C14.28 32 19.56 32 25 32 C25 34.31 25 36.62 25 39 C16.75 39 8.5 39 0 39 C0 26.13 0 13.26 0 0 Z " fill="#FEFEFE" transform="translate(92,407)"/>
<path d="M0 0 C3.08064695 0.98133512 4.30198665 2.93494561 5.9375 5.6171875 C7.9096491 9.56148569 7.38617961 14.31835179 6.9375 18.6171875 C4.94781547 22.52794675 3.57216354 24.19407848 -0.0625 26.6171875 C-3.86194252 27.11276696 -5.54981111 26.94344407 -8.8125 24.8671875 C-12.45540789 21.22427961 -13.36570692 18.36821327 -13.4375 13.2421875 C-13.35108133 8.26314271 -12.47011604 5.41424538 -9.0625 1.6171875 C-5.6625314 -0.64945823 -3.97255327 -0.59880399 0 0 Z " fill="#8E0B0C" transform="translate(493.0625,413.3828125)"/>
<path d="M0 0 C3.08064695 0.98133512 4.30198665 2.93494561 5.9375 5.6171875 C7.78376633 9.30972015 7.28490877 13.57856054 6.9375 17.6171875 C5.43733107 21.74265205 3.90364976 24.57745334 -0.0625 26.6171875 C-3.85724027 27.18236158 -5.52390324 26.94769006 -8.8125 24.9296875 C-12.54436176 21.09416291 -13.19425274 17.91342699 -13.4375 12.6796875 C-13.34567523 7.94011663 -12.24140666 5.25022368 -9.0625 1.6171875 C-5.6625314 -0.64945823 -3.97255327 -0.59880399 0 0 Z " fill="#8E0B0C" transform="translate(274.0625,413.3828125)"/>
<path d="M0 0 C3.3 0 6.6 0 10 0 C10 13.2 10 26.4 10 40 C6.7 40 3.4 40 0 40 C0 26.8 0 13.6 0 0 Z " fill="#F5EBEB" transform="translate(378,473)"/>
<path d="M0 0 C3.3 0 6.6 0 10 0 C10 12.87 10 25.74 10 39 C6.7 39 3.4 39 0 39 C0 26.13 0 13.26 0 0 Z " fill="#F7EFEF" transform="translate(75,407)"/>
<path d="M0 0 C2.97 0 5.94 0 9 0 C9 12.87 9 25.74 9 39 C6.03 39 3.06 39 0 39 C0 26.13 0 13.26 0 0 Z " fill="#FEFDFD" transform="translate(224,474)"/>
<path d="M0 0 C2.97 0 5.94 0 9 0 C9 12.87 9 25.74 9 39 C6.03 39 3.06 39 0 39 C0 26.13 0 13.26 0 0 Z " fill="#FEFEFE" transform="translate(192,407)"/>
<path d="M0 0 C7.35678392 -0.36180905 7.35678392 -0.36180905 10 1.125 C11.47901666 3.89815624 11.38601984 5.91184125 11 9 C10 10.875 10 10.875 8 12 C5.28121737 12.24131207 2.7407889 12.1347929 0 12 C0 8.04 0 4.08 0 0 Z " fill="#901010" transform="translate(50,413)"/>
<path d="M0 0 C6.4 -0.36923077 6.4 -0.36923077 9.4375 1.5 C9.953125 1.995 10.46875 2.49 11 3 C10.75 5.875 10.75 5.875 10 9 C6.94570883 11.48868169 3.80818272 11.17309921 0 11 C0 7.37 0 3.74 0 0 Z " fill="#8E0B0B" transform="translate(353,480)"/>
<path d="M0 0 C0.66 0 1.32 0 2 0 C2.50512244 1.60256108 3.00391627 3.20711792 3.5 4.8125 C3.7784375 5.70582031 4.056875 6.59914063 4.34375 7.51953125 C5 10 5 10 5 13 C2.36 13 -0.28 13 -3 13 C-2.45144652 8.428721 -1.58255197 4.32564205 0 0 Z " fill="#911414" transform="translate(167,416)"/>
</svg>
